HIERARCHY
ROOT Hips
{
	OFFSET	0.00	0.00	0.00
	CHANNELS 6 Xposition Yposition Zposition Zrotation Xrotation Yrotation
	JOINT LeftUpLeg
	{
		OFFSET	 0.126116	-0.014019	-0.065224
		CHANNELS 3 Zrotation Xrotation Yrotation
		JOINT LeftLeg
		{
			OFFSET	 0.000000	 0.000000	 0.569914
			CHANNELS 3 Zrotation Xrotation Yrotation
			JOINT LeftFoot
			{
				OFFSET	 0.000000	 0.000000	 0.544423
				CHANNELS 3 Zrotation Xrotation Yrotation
				JOINT LeftToeBase
				{
					OFFSET	 0.000000	 0.000000	 0.207117
					CHANNELS 3 Zrotation Xrotation Yrotation
					End Site
					{
						OFFSET	 0.000000	 0.000000	 0.207117
					}
				}
			}
		}
	}
	JOINT RightUpLeg
	{
		OFFSET	-0.124023	-0.008373	-0.065224
		CHANNELS 3 Zrotation Xrotation Yrotation
		JOINT RightLeg
		{
			OFFSET	 0.000000	 0.000000	 0.570047
			CHANNELS 3 Zrotation Xrotation Yrotation
			JOINT RightFoot
			{
				OFFSET	 0.000000	 0.000000	 0.544354
				CHANNELS 3 Zrotation Xrotation Yrotation
				JOINT RightToeBase
				{
					OFFSET	 0.000000	 0.000000	 0.207540
					CHANNELS 3 Zrotation Xrotation Yrotation
					End Site
					{
						OFFSET	 0.000000	 0.000000	 0.207540
					}
				}
			}
		}
	}
	JOINT Spine
	{
		OFFSET	 0.000184	-0.007763	 0.117403
		CHANNELS 3 Zrotation Xrotation Yrotation
		JOINT Spine1
		{
			OFFSET	 0.000000	 0.000000	 0.137269
			CHANNELS 3 Zrotation Xrotation Yrotation
			JOINT Spine2
			{
				OFFSET	 0.000000	 0.000000	 0.156879
				CHANNELS 3 Zrotation Xrotation Yrotation
				JOINT LeftShoulder
				{
					OFFSET	 0.080501	-0.002496	 0.160144
					CHANNELS 3 Zrotation Xrotation Yrotation
					JOINT LeftArm
					{
						OFFSET	 0.000000	 0.000000	 0.164363
						CHANNELS 3 Zrotation Xrotation Yrotation
						JOINT LeftForeArm
						{
							OFFSET	 0.000000	 0.000000	 0.364576
							CHANNELS 3 Zrotation Xrotation Yrotation
							JOINT LeftHand
							{
								OFFSET	 0.000000	 0.000000	 0.360812
								CHANNELS 3 Zrotation Xrotation Yrotation
								JOINT LeftHandIndex1
								{
									OFFSET	 0.000000	 0.000000	 0.086006
									CHANNELS 3 Zrotation Xrotation Yrotation
									JOINT LeftHandIndex2
									{
										OFFSET	 0.000000	 0.000000	 0.047236
										CHANNELS 3 Zrotation Xrotation Yrotation
										JOINT LeftHandIndex3
										{
											OFFSET	-0.004284	-0.000551	 0.038166
											CHANNELS 3 Zrotation Xrotation Yrotation
											End Site
											{
												OFFSET	-0.004284	-0.000551	 0.038166
											}
										}
									}
								}
							}
						}
					}
				}
				JOINT Neck
				{
					OFFSET	 0.000000	 0.000000	 0.176489
					CHANNELS 3 Zrotation Xrotation Yrotation
					JOINT Head
					{
						OFFSET	 0.000000	-0.001747	 0.077940
						CHANNELS 3 Zrotation Xrotation Yrotation
						End Site
						{
							OFFSET	 0.000000	-0.001747	 0.077940
						}
					}
				}
				JOINT RightShoulder
				{
					OFFSET	-0.080363	 0.000306	 0.159706
					CHANNELS 3 Zrotation Xrotation Yrotation
					JOINT RightArm
					{
						OFFSET	 0.000000	 0.000000	 0.164196
						CHANNELS 3 Zrotation Xrotation Yrotation
						JOINT RightForeArm
						{
							OFFSET	 0.000000	 0.000000	 0.365611
							CHANNELS 3 Zrotation Xrotation Yrotation
							JOINT RightHand
							{
								OFFSET	 0.000000	 0.000000	 0.360648
								CHANNELS 3 Zrotation Xrotation Yrotation
								JOINT RightHandIndex1
								{
									OFFSET	 0.000000	 0.000000	 0.069977
									CHANNELS 3 Zrotation Xrotation Yrotation
									JOINT RightHandIndex2
									{
										OFFSET	 0.000000	 0.000000	 0.052305
										CHANNELS 3 Zrotation Xrotation Yrotation
										JOINT RightHandIndex3
										{
											OFFSET	 0.009002	-0.000782	 0.042196
											CHANNELS 3 Zrotation Xrotation Yrotation
											End Site
											{
												OFFSET	 0.009002	-0.000782	 0.042196
											}
										}
									}
								}
							}
						}
					}
				}
			}
		}
	}
}
MOTION
Frames:    9
Frame Time: 0.03333334
 0.000051	 0.019689	 1.271789	-0.002892	 0.007137	 0.098364	-9.106670	-1.689048	 179.232000	 1.468864	-12.304940	-0.718988	-4.943904	 71.549100	-1.382555	-2.385833	 28.452760	 0.000004	 8.982649	-1.937677	-179.357800	-1.455920	-12.276980	 0.704121	 4.814481	 71.360730	 1.354616	 2.384658	 28.388730	 0.000004	-2.391123	 2.710865	 0.187887	-1.101589	 3.677307	-0.409627	 3.348331	-4.650554	 0.723767	-91.776190	 78.527470	-180.000000	 55.859780	 39.375790	-63.749370	-8.361461	 0.188875	-0.572445	-31.293880	-19.023360	-4.737656	-2.635965	 4.993658	 6.788941	-5.165319	 0.784187	 3.516649	-5.225038	 0.466231	 0.424329	-0.000002	-3.783157	-0.089647	 3.255091	 4.948111	-0.140695	 89.782100	 78.203890	 180.000000	-64.563180	 42.127200	 55.697980	 7.659837	 5.869976	 13.492670	 32.207590	-19.658630	 9.588305	 6.112037	 4.509576	-0.364401	 4.968462	 1.518543	-9.347576	 5.168945	 0.703820	 2.021906
 0.000053	 0.019660	 1.272279	-0.002885	 0.007135	 0.098328	-9.060857	-1.690145	 179.228600	 1.468866	-12.305070	-0.718998	-4.948887	 71.467440	-1.376182	-2.385833	 28.452760	 0.000004	 8.936850	-1.938678	-179.354600	-1.455920	-12.277190	 0.704131	 4.818812	 71.279240	 1.348984	 2.384658	 28.388730	 0.000004	-2.544944	 2.710872	 0.187921	-1.101594	 3.677305	-0.409626	 3.348332	-4.650559	 0.723768	-91.776190	 78.527450	-180.000000	 55.838230	 39.366080	-63.714020	-8.517636	 0.191712	-0.660279	-31.754470	-20.374690	-4.906233	-2.635965	 4.993658	 6.788941	-5.165319	 0.784187	 3.516649	-5.225038	 0.466231	 0.424329	-0.000002	-3.783157	-0.089647	 3.255091	 4.948111	-0.140695	 89.782170	 78.203900	 179.999900	-64.344780	 42.011220	 55.962200	 7.591952	 5.873972	 13.581130	 32.794090	-21.047810	 9.776700	 6.112037	 4.509576	-0.364401	 4.968462	 1.518543	-9.347576	 5.168945	 0.703820	 2.021906
 0.000057	 0.019613	 1.273054	-0.002887	 0.007139	 0.098358	-8.989459	-1.691725	 179.223200	 1.468863	-12.305040	-0.718997	-4.956544	 71.340030	-1.366382	-2.385833	 28.452760	 0.000004	 8.865417	-1.940066	-179.349500	-1.455919	-12.277070	 0.704125	 4.825295	 71.151920	 1.340427	 2.384658	 28.388730	 0.000004	-2.789767	 2.710851	 0.187892	-1.101590	 3.677330	-0.409627	 3.348330	-4.650574	 0.723768	-91.776180	 78.527450	 180.000000	 55.798820	 39.351200	-63.652310	-8.764832	 0.195624	-0.796084	-32.502400	-22.500860	-5.216338	-2.635965	 4.993658	 6.788941	-5.165319	 0.784187	 3.516649	-5.225038	 0.466231	 0.424329	-0.000002	-3.783157	-0.089647	 3.255091	 4.948110	-0.140695	 89.782170	 78.203890	 179.999900	-63.994740	 41.796460	 56.615230	 7.606667	 5.792597	 13.526390	 33.640120	-23.244680	 10.090720	 6.112037	 4.509576	-0.364401	 4.968462	 1.518543	-9.347576	 5.168945	 0.703820	 2.021906
 0.000061	 0.019573	 1.273749	-0.002890	 0.007135	 0.098332	-8.926023	-1.693165	 179.218400	 1.468862	-12.305070	-0.718998	-4.963109	 71.227020	-1.357840	-2.385833	 28.452760	 0.000004	 8.801963	-1.941386	-179.345000	-1.455918	-12.277180	 0.704131	 4.830898	 71.039120	 1.332915	 2.384658	 28.388730	 0.000004	-3.012983	 2.710870	 0.187919	-1.101590	 3.677314	-0.409620	 3.348331	-4.650566	 0.723765	-91.776150	 78.527450	 180.000000	 55.757170	 39.337110	-63.587350	-8.989656	 0.200692	-0.920941	-33.200390	-24.399450	-5.543418	-2.635965	 4.993658	 6.788941	-5.165319	 0.784187	 3.516649	-5.225038	 0.466231	 0.424329	-0.000002	-3.783157	-0.089647	 3.255091	 4.948111	-0.140695	 89.782040	 78.203890	-180.000000	-63.705690	 41.424720	 57.390490	 7.510307	 5.676972	 13.449190	 34.539690	-25.345470	 10.367410	 6.112037	 4.509576	-0.364401	 4.968462	 1.518543	-9.347576	 5.168945	 0.703820	 2.021906
 0.000065	 0.019529	 1.274528	-0.002885	 0.007135	 0.098328	-8.855384	-1.694683	 179.213100	 1.468867	-12.304920	-0.718988	-4.970235	 71.101110	-1.348501	-2.385833	 28.452760	 0.000004	 8.731292	-1.942776	-179.340000	-1.455917	-12.277090	 0.704124	 4.836952	 70.913390	 1.324720	 2.384658	 28.388730	 0.000004	-3.268435	 2.710871	 0.187921	-1.101593	 3.677306	-0.409626	 3.348331	-4.650559	 0.723768	-91.776180	 78.527470	 180.000000	 55.704880	 39.318150	-63.505410	-9.245640	 0.207307	-1.063026	-34.017920	-26.507580	-5.968351	-2.635965	 4.993658	 6.788941	-5.165319	 0.784187	 3.516649	-5.225038	 0.466231	 0.424329	-0.000002	-3.783157	-0.089647	 3.255111	 4.948138	-0.140696	 89.782150	 78.203890	 180.000000	-63.244480	 40.959560	 58.234910	 7.391603	 5.631891	 13.554100	 35.580220	-27.680960	 10.748990	 6.112037	 4.509576	-0.364401	 4.968462	 1.518543	-9.347576	 5.168945	 0.703820	 2.021906
 0.000069	 0.019491	 1.275208	-0.002890	 0.007135	 0.098332	-8.793609	-1.696108	 179.208400	 1.468867	-12.304950	-0.718993	-4.976295	 70.991210	-1.340425	-2.385833	 28.452760	 0.000004	 8.669569	-1.944012	-179.335600	-1.455919	-12.277070	 0.704123	 4.842143	 70.803630	 1.317646	 2.384658	 28.388730	 0.000004	-3.497543	 2.710870	 0.187919	-1.101590	 3.677315	-0.409620	 3.348331	-4.650568	 0.723765	-91.776120	 78.527490	 179.999900	 55.652920	 39.299450	-63.423400	-9.474553	 0.214929	-1.191840	-34.767220	-28.323930	-6.393200	-2.635965	 4.993658	 6.788941	-5.165319	 0.784187	 3.516649	-5.225038	 0.466231	 0.424329	-0.000002	-3.783157	-0.089647	 3.255091	 4.948110	-0.140695	 89.782050	 78.203900	-180.000000	-62.685990	 40.478580	 58.820920	 7.179975	 5.739314	 14.040280	 36.530880	-29.720590	 11.138270	 6.112037	 4.509576	-0.364401	 4.968462	 1.518543	-9.347576	 5.168945	 0.703820	 2.021906
 0.000073	 0.019447	 1.276017	-0.002891	 0.007137	 0.098334	-8.719469	-1.697725	 179.202800	 1.468866	-12.304810	-0.718982	-4.983403	 70.859180	-1.330923	-2.385833	 28.452760	 0.000004	 8.595385	-1.945474	-179.330400	-1.455920	-12.276960	 0.704118	 4.848152	 70.671790	 1.309308	 2.384658	 28.388730	 0.000004	-3.779988	 2.710858	 0.187918	-1.101589	 3.677330	-0.409618	 3.348329	-4.650575	 0.723764	-91.776220	 78.527430	-180.000000	 55.580620	 39.277050	-63.310940	-9.756043	 0.226067	-1.351179	-35.709530	-30.444820	-6.969141	-2.635965	 4.993658	 6.788941	-5.165319	 0.784187	 3.516649	-5.225038	 0.466231	 0.424329	-0.000002	-3.783157	-0.089647	 3.255091	 4.948110	-0.140695	 89.782100	 78.203870	 180.000000	-61.765110	 39.794030	 59.165330	 6.815171	 6.166612	 15.378140	 37.715490	-32.125710	 11.680100	 6.112037	 4.509576	-0.364401	 4.968462	 1.518543	-9.347576	 5.168945	 0.703820	 2.021906
 0.000076	 0.019411	 1.276738	-0.002891	 0.007137	 0.098334	-8.653514	-1.699232	 179.197800	 1.468865	-12.304820	-0.718982	-4.989532	 70.741930	-1.322588	-2.385833	 28.452760	 0.000004	 8.529426	-1.946831	-179.325700	-1.455923	-12.276970	 0.704117	 4.853358	 70.554700	 1.301995	 2.384658	 28.388730	 0.000004	-4.037566	 2.710865	 0.187917	-1.101586	 3.677305	-0.409628	 3.348324	-4.650559	 0.723768	-91.776220	 78.527490	-180.000000	 55.510290	 39.248780	-63.199470	-10.012100	 0.236358	-1.493731	-36.582640	-32.245050	-7.538103	-2.635965	 4.993658	 6.788941	-5.165319	 0.784187	 3.516649	-5.225038	 0.466231	 0.424329	-0.000002	-3.783157	-0.089647	 3.255091	 4.948111	-0.140695	 89.782210	 78.203900	 179.999900	-60.742940	 39.107210	 59.544310	 6.416310	 6.581920	 16.726610	 38.725790	-34.202970	 12.195650	 6.112037	 4.509576	-0.364401	 4.968462	 1.518543	-9.347576	 5.168945	 0.703820	 2.021906
 0.000080	 0.019379	 1.277455	-0.002885	 0.007135	 0.098328	-8.588809	-1.700727	 179.192900	 1.468869	-12.304830	-0.718983	-4.995420	 70.626920	-1.314518	-2.385833	 28.452760	 0.000004	 8.464689	-1.948145	-179.321100	-1.455918	-12.276950	 0.704118	 4.858294	 70.439830	 1.294948	 2.384658	 28.388730	 0.000004	-4.296062	 2.710862	 0.187923	-1.101592	 3.677325	-0.409613	 3.348327	-4.650574	 0.723763	-91.776180	 78.527490	 180.000000	 55.428610	 39.218510	-63.070290	-10.269330	 0.249081	-1.639100	-37.466240	-33.904190	-8.142406	-2.635965	 4.993658	 6.788941	-5.165319	 0.784187	 3.516649	-5.225038	 0.466231	 0.424329	-0.000002	-3.783157	-0.089647	 3.255110	 4.948138	-0.140696	 89.782160	 78.203870	 179.999900	-59.633170	 38.384560	 60.498540	 5.961787	 6.697091	 17.459430	 39.560930	-36.187840	 12.673460	 6.112037	 4.509576	-0.364401	 4.968462	 1.518543	-9.347576	 5.168945	 0.703820	 2.021906
